<svg width="41" height="42" viewBox="0 0 41 42" fill="none" xmlns="http://www.w3.org/2000/svg">
<path d="M24.6428 32.9205H13.5955C13.2142 32.9205 12.905 32.6038 12.905 32.2132C12.905 31.8225 13.2142 31.5059 13.5955 31.5059H17.0471V27.2614L2.95784 27.2621C1.62898 27.2621 0.548559 26.1792 0.480237 24.8225L0.476807 24.6859V2.96092C0.476807 1.58688 1.51436 0.459641 2.82581 0.388345L2.95784 0.384766H35.2805C36.6093 0.384766 37.6897 1.46768 37.7581 2.82437L37.7615 2.96092V17.3599H38.4519C39.5959 17.3599 40.5233 18.3099 40.5233 19.4818V39.2861C40.5233 40.458 39.5959 41.408 38.4519 41.408H28.7855C27.6416 41.408 26.7142 40.458 26.7142 39.2861V27.2614H21.1898V31.5059H24.6428C24.9969 31.5059 25.2887 31.7789 25.3286 32.1307L25.3333 32.2132C25.3333 32.6038 25.0241 32.9205 24.6428 32.9205ZM38.4519 18.7745H28.7855C28.4042 18.7745 28.0951 19.0912 28.0951 19.4818V39.2861C28.0951 39.6768 28.4042 39.9934 28.7855 39.9934H38.4519C38.8333 39.9934 39.1424 39.6768 39.1424 39.2861V19.4818C39.1424 19.0912 38.8333 18.7745 38.4519 18.7745ZM19.8089 27.2614H18.428V31.5059H19.8089V27.2614ZM35.2805 1.79936H2.95784C2.38677 1.79936 1.91311 2.26062 1.86224 2.85476L1.85772 2.96092V24.6859C1.85772 25.2946 2.29966 25.7896 2.85813 25.8428L2.95783 25.8475L26.7142 25.8468V19.4818C26.7142 18.3099 27.6416 17.3599 28.7855 17.3599H36.3806V2.96092C36.3806 2.35228 35.9386 1.85721 35.3801 1.80408L35.2805 1.79936ZM24.6428 21.6037C25.0241 21.6037 25.3333 21.9204 25.3333 22.311C25.3333 22.6737 25.0667 22.9727 24.7233 23.0135L24.6428 23.0183H5.31001C4.92868 23.0183 4.61955 22.7016 4.61955 22.311C4.61955 21.9483 4.88609 21.6493 5.22948 21.6084L5.31001 21.6037H24.6428ZM34.9997 20.8964C35.381 20.8964 35.6901 21.2131 35.6901 21.6037C35.6901 21.9664 35.4236 22.2654 35.0802 22.3062L34.9997 22.311H32.2378C31.8565 22.311 31.5474 21.9943 31.5474 21.6037C31.5474 21.241 31.8139 20.942 32.1573 20.9012L32.2378 20.8964H34.9997Z" fill="#B80000"/>
</svg>
