<svg width="44" height="42" viewBox="0 0 44 42" fill="none" xmlns="http://www.w3.org/2000/svg">
<g clip-path="url(#clip0)">
<path d="M40.731 26.5681L40.8124 26.6015L42.3195 27.3202C44.5114 28.3655 44.5591 30.3606 42.4625 31.4471L42.3195 31.5182L25.3839 39.5942C23.559 40.4644 20.7303 40.4966 18.831 39.6908L18.6161 39.5942L1.68049 31.5182C-0.511431 30.4729 -0.559081 28.4778 1.53741 27.3913L1.68035 27.3203L3.18668 26.6016C3.56138 26.4228 4.0171 26.5676 4.20455 26.925C4.3786 27.2568 4.26015 27.6553 3.94233 27.8536L3.86549 27.8957L2.35902 28.6145C1.27537 29.1312 1.23801 29.6516 2.24692 30.1686L2.35902 30.2239L19.2947 38.2999C20.7014 38.9707 23.0329 38.9987 24.5168 38.3837L24.7054 38.2999L41.641 30.2239C42.7246 29.7072 42.762 29.1869 41.7531 28.6699L41.641 28.6145L40.1339 27.8958C39.7592 27.7171 39.6073 27.2825 39.7946 26.9251C39.9686 26.5932 40.374 26.4446 40.731 26.5681ZM40.731 17.886L40.8124 17.9194L42.3195 18.638C44.5114 19.6833 44.5591 21.6784 42.4625 22.7649L42.3195 22.836L25.3839 30.912C23.559 31.7822 20.7303 31.8144 18.831 31.0087L18.6161 30.912L1.68049 22.836C-0.511431 21.7908 -0.559081 19.7957 1.53741 18.7092L1.68035 18.6381L3.18668 17.9194C3.56138 17.7407 4.0171 17.8854 4.20455 18.2428C4.3786 18.5746 4.26015 18.9731 3.94233 19.1714L3.86549 19.2136L2.35902 19.9323C1.27537 20.4491 1.23801 20.9694 2.24692 21.4864L2.35902 21.5418L19.2947 29.6177C20.7014 30.2885 23.0329 30.3165 24.5168 29.7016L24.7054 29.6177L41.641 21.5418C42.7246 21.025 42.762 20.5047 41.7531 19.9877L41.641 19.9323L40.1339 19.2136C39.7592 19.0349 39.6073 18.6003 39.7946 18.2429C39.9686 17.911 40.374 17.7624 40.731 17.886ZM25.3839 1.87991L42.3195 9.95587C44.5602 11.0243 44.5602 13.0854 42.3195 14.1538L25.3839 22.2298C23.4888 23.1335 20.5112 23.1335 18.6161 22.2298L1.68049 14.1538C-0.56014 13.0854 -0.56014 11.0243 1.68049 9.95587L18.6161 1.87991C20.5112 0.976228 23.4888 0.976228 25.3839 1.87991ZM19.2947 3.17417L2.35902 11.2501C1.23667 11.7853 1.23667 12.3244 2.35902 12.8596L19.2947 20.9356C20.7626 21.6355 23.2374 21.6355 24.7054 20.9356L41.641 12.8596C42.7633 12.3244 42.7633 11.7853 41.641 11.2501L24.7054 3.17417C23.2374 2.47418 20.7626 2.47418 19.2947 3.17417ZM18.6161 9.11505C20.5112 8.21137 23.4888 8.21137 25.3839 9.11505L33.8517 13.153C34.2264 13.3317 34.3783 13.7663 34.191 14.1237C34.0036 14.4811 33.5479 14.626 33.1732 14.4473L24.7054 10.4093C23.2374 9.70932 20.7626 9.70932 19.2947 10.4093L10.1142 14.7871C9.73949 14.9658 9.28381 14.8209 9.09644 14.4635C8.90907 14.1061 9.06096 13.6715 9.4357 13.4928L18.6161 9.11505Z" fill="#B80000"/>
</g>
<defs>
<clipPath id="clip0">
<rect width="44" height="42" fill="white"/>
</clipPath>
</defs>
</svg>
