<svg width="41" height="42" viewBox="0 0 41 42" fill="none" xmlns="http://www.w3.org/2000/svg">
<path d="M37.0518 0.403809C38.9562 0.403809 40.5 1.98531 40.5 3.93619V37.847C40.5 39.7979 38.9562 41.3794 37.0518 41.3794H24.638C22.7335 41.3794 21.1897 39.7979 21.1897 37.847V3.93619C21.1897 1.98531 22.7335 0.403809 24.638 0.403809H37.0518ZM16.3621 21.5981C18.2665 21.5981 19.8104 23.1796 19.8104 25.1305V37.847C19.8104 39.7979 18.2665 41.3794 16.3621 41.3794H3.94831C2.04388 41.3794 0.500031 39.7979 0.500031 37.847V25.1305C0.500031 23.1796 2.04388 21.5981 3.94831 21.5981H16.3621ZM37.0518 1.81676H24.638C23.4953 1.81676 22.569 2.76566 22.569 3.93619V37.847C22.569 39.0176 23.4953 39.9665 24.638 39.9665H37.0518C38.1944 39.9665 39.1207 39.0176 39.1207 37.847V3.93619C39.1207 2.76566 38.1944 1.81676 37.0518 1.81676ZM16.3621 23.011H3.94831C2.80565 23.011 1.87934 23.9599 1.87934 25.1305V37.847C1.87934 39.0176 2.80565 39.9665 3.94831 39.9665H16.3621C17.5048 39.9665 18.4311 39.0176 18.4311 37.847V25.1305C18.4311 23.9599 17.5048 23.011 16.3621 23.011ZM10.1552 26.5434C12.8214 26.5434 14.9828 28.7575 14.9828 31.4888C14.9828 34.22 12.8214 36.4341 10.1552 36.4341C7.489 36.4341 5.32762 34.22 5.32762 31.4888C5.32762 28.7575 7.489 26.5434 10.1552 26.5434ZM9.15116 29.3693C8.94953 29.3693 8.78607 29.5368 8.78607 29.7433V33.2341C8.78607 33.2998 8.80294 33.3643 8.83498 33.4211C8.9358 33.6 9.15909 33.6613 9.33371 33.558L12.2849 31.8126C12.3404 31.7798 12.3864 31.7326 12.4185 31.6757C12.5193 31.4968 12.4595 31.2681 12.2849 31.1648L9.33371 29.4194C9.27821 29.3866 9.21525 29.3693 9.15116 29.3693ZM32.713 18.4726C34.6536 18.4726 36.2268 20.0841 36.2268 22.072C36.2268 24.06 34.6536 25.6715 32.713 25.6715C31.0131 25.6715 29.5951 24.4349 29.2696 22.7919L32.1847 22.7919C32.3071 22.7919 32.4273 22.7589 32.5332 22.6963C32.8665 22.4991 32.9807 22.0625 32.7883 21.721L31.1645 18.8401C31.6317 18.6048 32.1573 18.4726 32.713 18.4726ZM29.2807 15.6888C29.3866 15.7515 29.4746 15.8416 29.5358 15.9501L31.1645 18.8401C30.0004 19.4265 29.1993 20.6534 29.1993 22.072C29.1993 22.3186 29.2235 22.5593 29.2696 22.7919H25.6797C25.2948 22.7919 24.9828 22.4723 24.9828 22.078C24.9828 21.9527 25.015 21.8296 25.0762 21.721L28.3287 15.9501C28.5211 15.6087 28.9474 15.4917 29.2807 15.6888ZM16.3621 0.403809C18.2665 0.403809 19.8104 1.98531 19.8104 3.93619V16.6528C19.8104 18.6036 18.2665 20.1851 16.3621 20.1851H3.94831C2.04388 20.1851 0.500031 18.6036 0.500031 16.6528V3.93619C0.500031 1.98531 2.04388 0.403809 3.94831 0.403809H16.3621ZM16.3621 1.81676H3.94831C2.80565 1.81676 1.87934 2.76566 1.87934 3.93619V16.6528C1.87934 17.8233 2.80565 18.7722 3.94831 18.7722H16.3621C17.5048 18.7722 18.4311 17.8233 18.4311 16.6528V3.93619C18.4311 2.76566 17.5048 1.81676 16.3621 1.81676ZM12.2242 13.1204C12.6051 13.1204 12.9138 13.4367 12.9138 13.8269C12.9138 14.217 12.6051 14.5333 12.2242 14.5333H5.32762C4.94673 14.5333 4.63796 14.217 4.63796 13.8269C4.63796 13.4367 4.94673 13.1204 5.32762 13.1204H12.2242ZM14.9828 10.2945C15.3637 10.2945 15.6724 10.6108 15.6724 11.0009C15.6724 11.3911 15.3637 11.7074 14.9828 11.7074H5.32762C4.94673 11.7074 4.63796 11.3911 4.63796 11.0009C4.63796 10.6108 4.94673 10.2945 5.32762 10.2945H14.9828ZM12.2242 7.46857C12.6051 7.46857 12.9138 7.78487 12.9138 8.17504C12.9138 8.56522 12.6051 8.88152 12.2242 8.88152H5.32762C4.94673 8.88152 4.63796 8.56522 4.63796 8.17504C4.63796 7.78487 4.94673 7.46857 5.32762 7.46857H12.2242ZM14.9828 4.64266C15.3637 4.64266 15.6724 4.95896 15.6724 5.34914C15.6724 5.73932 15.3637 6.05562 14.9828 6.05562H5.32762C4.94673 6.05562 4.63796 5.73932 4.63796 5.34914C4.63796 4.95896 4.94673 4.64266 5.32762 4.64266H14.9828Z" fill="#096634"/>
</svg>
