<svg width="38" height="42" viewBox="0 0 38 42" fill="none" xmlns="http://www.w3.org/2000/svg">
<path d="M27.0022 20.2964C27.6556 20.2964 28.2053 20.834 28.2806 21.5467L28.3774 22.463C28.8896 22.632 29.3836 22.8572 29.8529 23.1346L30.5116 22.5616C31.0237 22.116 31.7587 22.1626 32.2208 22.67L33.5214 24.098C33.9834 24.6053 34.0259 25.4123 33.6203 25.9745L33.0984 26.6985C33.351 27.2137 33.556 27.756 33.7098 28.3181L34.5441 28.4245C35.1932 28.5071 35.6829 29.1107 35.6829 29.8282V31.8478C35.6829 32.5652 35.1933 33.1688 34.5443 33.2515L33.7098 33.3578C33.5559 33.9201 33.3508 34.4626 33.0981 34.9778L33.62 35.7011C34.0258 36.2635 33.9834 37.0705 33.5213 37.5779L32.2207 39.006C31.7587 39.5133 31.0238 39.5599 30.5118 39.1146L29.8524 38.5415C29.3857 38.8174 28.8945 39.0416 28.3854 39.2102L28.2829 40.1366C28.2044 40.846 27.6561 41.3794 27.0053 41.3794H25.1597C24.509 41.3794 23.9607 40.8461 23.8822 40.1371L23.7793 39.2101C23.2728 39.0423 22.7841 38.8195 22.3196 38.5456L21.6502 39.1215C21.138 39.5622 20.4067 39.5136 19.9465 39.0083L18.6415 37.5754C18.1814 37.0702 18.1371 36.2673 18.5382 35.7049L19.0628 34.9693C18.8133 34.4592 18.6104 33.9226 18.4577 33.3665L17.614 33.2539C16.968 33.1678 16.4822 32.5657 16.4822 31.8511V29.8246C16.4822 29.1101 16.9679 28.5081 17.6136 28.4219L18.4578 28.3089C18.6106 27.7529 18.8134 27.2165 19.0628 26.7066L18.5385 25.9711C18.1372 25.4086 18.1814 24.6057 18.6416 24.1004L19.9466 22.6675C20.4067 22.1622 21.1379 22.1136 21.65 22.5541L22.32 23.13C22.787 22.8547 23.2784 22.631 23.7877 22.463L23.8845 21.5469C23.9598 20.8341 24.5095 20.2964 25.1629 20.2964H27.0022ZM27.0022 21.7096H25.1629L24.9639 23.5927L24.526 23.7075C23.8442 23.8862 23.1955 24.1819 22.6006 24.582L22.2196 24.8383L21.8678 24.5359L20.8566 23.6667L19.5516 25.0996L20.6185 26.5963L20.3851 27.0146C20.0225 27.6646 19.7541 28.3732 19.5911 29.1178L19.4867 29.5947L19.0433 29.6541L17.7691 29.8246V31.8511L19.4865 32.0802L19.5909 32.5574C19.7539 33.3022 20.0224 34.011 20.3851 34.6613L20.6185 35.0796L20.3431 35.4659L19.5515 36.5761L20.8565 38.0091L22.2188 36.837L22.6 37.0934C23.1921 37.4918 23.8377 37.7867 24.516 37.9657L24.9503 38.0804L25.0044 38.5672L25.1597 39.9663H27.0053L27.2139 38.0805L27.6485 37.9659C28.33 37.7861 28.9784 37.4894 29.5728 37.0883L29.9562 36.8295L30.3091 37.1362L31.3107 38.0067L32.6113 36.5787L31.5387 35.0922L31.7745 34.671C32.1417 34.0151 32.4128 33.2994 32.5764 32.5471L32.6809 32.0662L33.1281 32.0093L34.396 31.8478V29.8282L32.6809 29.6096L32.5764 29.1288C32.4129 28.3767 32.1419 27.6612 31.7749 27.0055L31.5392 26.5845L31.8186 26.1971L32.6113 25.0973L31.3108 23.6692L29.957 24.8469L29.5734 24.588C28.9761 24.1848 28.3242 23.8871 27.6391 23.7075L27.2012 23.5927L27.1493 23.1017L27.0022 21.7096ZM22.233 0.403809C24.6638 0.403809 26.6459 2.51838 26.7343 5.16552L26.7373 5.3352L26.7694 17.3047C26.7704 17.6949 26.4832 18.0122 26.1278 18.0133C25.7978 18.0144 25.5251 17.7425 25.487 17.3912L25.4824 17.3088L25.4504 5.33935C25.4453 3.44354 24.081 1.9001 22.3723 1.82018L22.233 1.81693H6.82145C5.09129 1.81693 3.68009 3.31647 3.60701 5.19649L3.60404 5.34974V32.1991C3.60404 34.0988 4.96971 35.6484 6.68189 35.7286L6.82145 35.7319H14.3336C14.689 35.7319 14.9771 36.0482 14.9771 36.4384C14.9771 36.8008 14.7287 37.0994 14.4086 37.1402L14.3336 37.145H6.82145C4.38558 37.145 2.40131 35.0219 2.31969 32.3691L2.31708 32.1991V5.34974C2.31708 2.67508 4.2506 0.496298 6.6666 0.406677L6.82145 0.403809H22.233ZM26.0825 25.993C28.5194 25.993 30.4949 28.1622 30.4949 30.8379C30.4949 33.5137 28.5194 35.6828 26.0825 35.6828C23.6457 35.6828 21.6702 33.5137 21.6702 30.8379C21.6702 28.1622 23.6457 25.993 26.0825 25.993ZM26.0825 27.4061C24.3564 27.4061 22.9571 28.9426 22.9571 30.8379C22.9571 32.7333 24.3564 34.2697 26.0825 34.2697C27.8087 34.2697 29.208 32.7333 29.208 30.8379C29.208 28.9426 27.8087 27.4061 26.0825 27.4061ZM13.2563 31.1392C13.6117 31.1392 13.8998 31.4556 13.8998 31.8458C13.8998 32.2081 13.6513 32.5068 13.3313 32.5476L13.2563 32.5524H6.82145C6.46607 32.5524 6.17797 32.236 6.17797 31.8458C6.17797 31.4834 6.42638 31.1848 6.74641 31.144L6.82145 31.1392H13.2563ZM13.2563 26.8999C13.6117 26.8999 13.8998 27.2162 13.8998 27.6064C13.8998 27.9688 13.6513 28.2674 13.3313 28.3082L13.2563 28.313H6.82145C6.46607 28.313 6.17797 27.9966 6.17797 27.6064C6.17797 27.2441 6.42638 26.9454 6.74641 26.9046L6.82145 26.8999H13.2563ZM15.8302 22.6605C16.1856 22.6605 16.4737 22.9768 16.4737 23.3671C16.4737 23.7294 16.2253 24.028 15.9052 24.0689L15.8302 24.0736H6.82145C6.46607 24.0736 6.17797 23.7573 6.17797 23.3671C6.17797 23.0047 6.42638 22.7061 6.74641 22.6652L6.82145 22.6605H15.8302ZM18.4041 13.8285C20.1343 13.8285 21.5455 15.328 21.6186 17.208L21.6215 17.3613V18.7744C21.6215 19.1646 21.3334 19.481 20.9781 19.481C20.6481 19.481 20.3761 19.2082 20.3389 18.8568L20.3346 18.7744V17.3613C20.3346 16.2324 19.5309 15.3097 18.5176 15.2452L18.4041 15.2416H10.6823C9.65427 15.2416 8.81389 16.124 8.75518 17.2367L8.7519 17.3613V18.7744C8.7519 19.1646 8.4638 19.481 8.10842 19.481C7.77842 19.481 7.50643 19.2082 7.46926 18.8568L7.46493 18.7744V17.3613C7.46493 15.4615 8.8306 13.912 10.5428 13.8317L10.6823 13.8285H18.4041ZM14.5432 3.93662C16.6756 3.93662 18.4041 5.83465 18.4041 8.17598C18.4041 10.5173 16.6756 12.4154 14.5432 12.4154C12.4109 12.4154 10.6823 10.5173 10.6823 8.17598C10.6823 5.83465 12.4109 3.93662 14.5432 3.93662ZM14.5432 5.34974C13.1217 5.34974 11.9693 6.61509 11.9693 8.17598C11.9693 9.73688 13.1217 11.0022 14.5432 11.0022C15.9648 11.0022 17.1172 9.73688 17.1172 8.17598C17.1172 6.61509 15.9648 5.34974 14.5432 5.34974Z" fill="#B4B4B4"/>
</svg>
