<svg width="42" height="42" viewBox="0 0 42 42" fill="none" xmlns="http://www.w3.org/2000/svg">
<path d="M27.8793 34.9096C29.679 34.9096 31.1379 36.3579 31.1379 38.1445C31.1379 39.9311 29.679 41.3794 27.8793 41.3794C26.0796 41.3794 24.6207 39.9311 24.6207 38.1445C24.6207 36.3579 26.0796 34.9096 27.8793 34.9096ZM41.2759 37.4256C41.6758 37.4256 42 37.7475 42 38.1445C42 38.5415 41.6758 38.8634 41.2759 38.8634H34.0345C33.6345 38.8634 33.3103 38.5415 33.3103 38.1445C33.3103 37.7475 33.6345 37.4256 34.0345 37.4256H41.2759ZM21.7241 37.4256C22.1241 37.4256 22.4483 37.7475 22.4483 38.1445C22.4483 38.5415 22.1241 38.8634 21.7241 38.8634H0.724138C0.324208 38.8634 0 38.5415 0 38.1445C0 37.7475 0.324208 37.4256 0.724138 37.4256H21.7241ZM14.1207 25.5643C15.9204 25.5643 17.3793 27.0126 17.3793 28.7992C17.3793 30.5858 15.9204 32.0341 14.1207 32.0341C12.321 32.0341 10.8621 30.5858 10.8621 28.7992C10.8621 27.0126 12.321 25.5643 14.1207 25.5643ZM7.96552 28.0803C8.36545 28.0803 8.68965 28.4022 8.68965 28.7992C8.68965 29.1678 8.41011 29.4717 8.04997 29.5132L7.96552 29.5181H0.724138C0.324208 29.5181 0 29.1962 0 28.7992C0 28.4305 0.279546 28.1267 0.639688 28.0852L0.724138 28.0803H7.96552ZM41.2759 28.0803C41.6758 28.0803 42 28.4022 42 28.7992C42 29.1678 41.7204 29.4717 41.3603 29.5132L41.2759 29.5181H20.2759C19.8759 29.5181 19.5517 29.1962 19.5517 28.7992C19.5517 28.4305 19.8313 28.1267 20.1914 28.0852L20.2759 28.0803H41.2759ZM16.6552 0.403809C18.6548 0.403809 20.2759 2.01305 20.2759 3.99816V16.9378C20.2759 18.9229 18.6548 20.5322 16.6552 20.5322H3.62069C1.62104 20.5322 0 18.9229 0 16.9378V3.99816C0 2.01305 1.62104 0.403809 3.62069 0.403809H16.6552ZM38.3793 0.403809C40.379 0.403809 42 2.01305 42 3.99816V16.9378C42 18.9229 40.379 20.5322 38.3793 20.5322H25.3448C23.3452 20.5322 21.7241 18.9229 21.7241 16.9378V3.99816C21.7241 2.01305 23.3452 0.403809 25.3448 0.403809H38.3793ZM16.6552 1.84155H3.62069C2.4209 1.84155 1.44828 2.8071 1.44828 3.99816V16.9378C1.44828 18.1289 2.4209 19.0944 3.62069 19.0944H16.6552C17.855 19.0944 18.8276 18.1289 18.8276 16.9378V3.99816C18.8276 2.8071 17.855 1.84155 16.6552 1.84155ZM38.3793 1.84155H25.3448C24.145 1.84155 23.1724 2.8071 23.1724 3.99816V16.9378C23.1724 18.1289 24.145 19.0944 25.3448 19.0944H38.3793C39.5791 19.0944 40.5517 18.1289 40.5517 16.9378V3.99816C40.5517 2.8071 39.5791 1.84155 38.3793 1.84155ZM33.8236 8.00654C35.8612 8.00654 37.5131 9.64634 37.5131 11.6691C37.5131 13.6919 35.8612 15.3317 33.8236 15.3317C32.0387 15.3317 30.5499 14.0734 30.208 12.4017L33.2689 12.4016C33.3974 12.4016 33.5236 12.3681 33.6348 12.3043C33.9848 12.1037 34.1047 11.6594 33.9027 11.312L32.1977 8.38046C32.6882 8.14102 33.2401 8.00654 33.8236 8.00654ZM14.0225 8.37047C15.5451 8.37047 16.4131 9.05979 16.4131 10.2415V13.9786H14.7069V13.2992H14.6127C14.3647 13.7669 13.7596 14.0623 13.0603 14.0623C11.9988 14.0623 11.2747 13.4075 11.2747 12.403C11.2747 11.4035 12.0584 10.8225 13.4818 10.7388L14.6871 10.6699V10.2415C14.6871 9.87222 14.4093 9.65065 13.9233 9.65065C13.462 9.65065 13.1644 9.80328 13.0503 10.0938H11.4731C11.5525 9.03025 12.5296 8.37047 14.0225 8.37047ZM8.49028 6.87364L10.8958 13.9786H8.91187L8.46548 12.4178H6.1294L5.66813 13.9786H3.86275L6.26331 6.87364H8.49028ZM14.6871 11.6497L13.7596 11.7088C13.2388 11.7482 12.966 11.95 12.966 12.2799C12.966 12.6295 13.2586 12.8462 13.7001 12.8462C14.2556 12.8462 14.6871 12.4818 14.6871 12.0091V11.6497ZM30.2197 5.17391C30.3309 5.23767 30.4233 5.32938 30.4875 5.43981L32.1977 8.38046C30.9754 8.97713 30.1342 10.2256 30.1342 11.6691C30.1342 11.92 30.1596 12.165 30.208 12.4017H26.4387C26.0345 12.4017 25.7069 12.0764 25.7069 11.6752C25.7069 11.5477 25.7407 11.4224 25.8049 11.312L29.2201 5.43981C29.4221 5.09236 29.8697 4.97331 30.2197 5.17391ZM7.35448 8.47387H7.26024L6.47659 11.1179H8.12326L7.35448 8.47387Z" fill="#D1D292"/>
</svg>
