<svg width="270" height="159" viewBox="0 0 270 159" fill="none" xmlns="http://www.w3.org/2000/svg">
<path d="M49.1903 43.2747V17.6736C49.1903 9.12383 56.0995 2.19287 64.6225 2.19287H252.382C260.904 2.19287 267.814 9.12383 267.814 17.6736V141.519C267.814 150.069 260.904 157 252.382 157H90.0063" stroke="#096634" stroke-width="3" stroke-linecap="round" stroke-linejoin="round"/>
<path d="M68.8664 56.1172H29.5142C24.6845 56.1172 20.7692 60.0447 20.7692 64.8896V148.228C20.7692 153.072 24.6845 157 29.5142 157H68.8664C73.6961 157 77.6113 153.072 77.6113 148.228V64.8896C77.6113 60.0447 73.6961 56.1172 68.8664 56.1172Z" stroke="#096634" stroke-width="3"/>
<path d="M53.5628 64.6963H44.8178C44.2141 64.6963 43.7247 65.1872 43.7247 65.7928C43.7247 66.3984 44.2141 66.8894 44.8178 66.8894H53.5628C54.1665 66.8894 54.6559 66.3984 54.6559 65.7928C54.6559 65.1872 54.1665 64.6963 53.5628 64.6963Z" fill="#096634"/>
<path d="M261.802 54.9241C261.802 54.0157 261.068 53.2793 260.162 53.2793C259.256 53.2793 258.522 54.0157 258.522 54.9241V104.269C258.522 105.177 259.256 105.914 260.162 105.914C261.068 105.914 261.802 105.177 261.802 104.269V54.9241Z" fill="#096634"/>
<path d="M9.83806 18.6411C10.4939 18.6411 10.9312 19.0797 10.9312 19.7377C10.9312 20.3956 10.4939 20.8342 9.83806 20.8342H6.5587C4.15385 20.8342 2.18623 22.808 2.18623 25.2204C2.18623 27.6328 4.15385 29.6066 6.5587 29.6066H9.83806C10.4939 29.6066 10.9312 30.0453 10.9312 30.7032C10.9312 31.3611 10.4939 31.7997 9.83806 31.7997H6.5587C2.95142 31.7997 0 28.839 0 25.2204C0 21.6018 2.95142 18.6411 6.5587 18.6411H9.83806ZM16.3968 18.6411H19.6761C23.2834 18.6411 26.2348 21.6018 26.2348 25.2204C26.2348 28.7568 23.416 31.6648 19.921 31.7952L19.6761 31.7997H16.3968C15.7409 31.7997 15.3036 31.3611 15.3036 30.7032C15.3036 30.0922 15.6807 29.6704 16.2596 29.6133L16.3968 29.6066H19.6761C22.081 29.6066 24.0486 27.6328 24.0486 25.2204C24.0486 22.8811 22.1984 20.9542 19.8935 20.8396L19.6761 20.8342H16.3968C15.7409 20.8342 15.3036 20.3956 15.3036 19.7377C15.3036 19.1267 15.6807 18.7049 16.2596 18.6477L16.3968 18.6411ZM8.74494 24.1239H17.4899C18.1458 24.1239 18.583 24.5625 18.583 25.2204C18.583 25.8314 18.206 26.2532 17.627 26.3103L17.4899 26.317H8.74494C8.08907 26.317 7.65182 25.8784 7.65182 25.2204C7.65182 24.6095 8.02884 24.1877 8.60782 24.1305L8.74494 24.1239ZM158.502 68.631C164.539 68.631 169.433 73.5404 169.433 79.5965C169.433 85.6526 164.539 90.562 158.502 90.562C152.465 90.562 147.571 85.6526 147.571 79.5965C147.571 73.5404 152.465 68.631 158.502 68.631ZM135.428 69.6873C135.893 69.9564 136.279 70.3435 136.547 70.8096L144.897 85.3177C145.741 86.7842 145.24 88.6595 143.778 89.5062C143.314 89.7753 142.787 89.917 142.25 89.917H125.55C123.862 89.917 122.493 88.5442 122.493 86.8508C122.493 86.3125 122.635 85.7838 122.903 85.3177L131.253 70.8096C132.097 69.3431 133.966 68.8406 135.428 69.6873ZM190.653 69.276C192.783 69.276 194.511 71.0087 194.511 73.1462V86.0468C194.511 88.1842 192.783 89.917 190.653 89.917H177.792C175.662 89.917 173.934 88.1842 173.934 86.0468V73.1462C173.934 71.0087 175.662 69.276 177.792 69.276H190.653ZM53.1319 119.985C54.5196 119.985 55.6445 121.113 55.6445 122.505V130.907C55.6445 132.299 54.5196 133.427 53.1319 133.427H44.7564C43.3687 133.427 42.2438 132.299 42.2438 130.907V122.505C42.2438 121.113 43.3687 119.985 44.7564 119.985H53.1319ZM48.5915 101.404C52.4868 101.404 55.6445 104.572 55.6445 108.479C55.6445 112.387 52.4868 115.554 48.5915 115.554C44.6962 115.554 41.5385 112.387 41.5385 108.479C41.5385 104.572 44.6962 101.404 48.5915 101.404ZM49.9362 83.799C50.2379 83.9743 50.4884 84.2264 50.6625 84.53L56.0836 93.9786C56.6316 94.9337 56.3064 96.155 55.3573 96.7065C55.0556 96.8817 54.7134 96.974 54.365 96.974H43.5229C42.4269 96.974 41.5385 96.08 41.5385 94.9771C41.5385 94.6266 41.6302 94.2822 41.8043 93.9786L47.2254 84.53C47.7734 83.5749 48.987 83.2476 49.9362 83.799Z" fill="#D1D292"/>
</svg>
