<svg width="53" height="42" viewBox="0 0 53 42" fill="none" xmlns="http://www.w3.org/2000/svg">
<path d="M23.6992 1C26.3169 1 28.439 2.69865 28.439 4.79404V38.1816C28.439 40.277 26.3169 41.9756 23.6992 41.9756H4.73984C2.1221 41.9756 0 40.277 0 38.1816V4.79404C0 2.69865 2.1221 1 4.73984 1H23.6992ZM23.6992 2.51762H4.73984C3.16919 2.51762 1.89593 3.5368 1.89593 4.79404V38.1816C1.89593 39.4388 3.16919 40.458 4.73984 40.458H23.6992C25.2698 40.458 26.5431 39.4388 26.5431 38.1816V4.79404C26.5431 3.5368 25.2698 2.51762 23.6992 2.51762ZM21.3293 23.0054C21.8528 23.0054 22.2772 23.3451 22.2772 23.7642V35.9051C22.2772 36.3242 21.8528 36.664 21.3293 36.664C20.8057 36.664 20.3813 36.3242 20.3813 35.9051V23.7642C20.3813 23.3451 20.8057 23.0054 21.3293 23.0054ZM11.8496 29.8347C12.3731 29.8347 12.7976 30.1744 12.7976 30.5935V35.9051C12.7976 36.3242 12.3731 36.664 11.8496 36.664C11.326 36.664 10.9016 36.3242 10.9016 35.9051V30.5935C10.9016 30.1744 11.326 29.8347 11.8496 29.8347ZM16.5384 29.1167C17.0619 29.1167 17.4863 29.4565 17.4863 29.8755V35.8643C17.4863 36.2834 17.0619 36.6231 16.5384 36.6231C16.0148 36.6231 15.5904 36.2834 15.5904 35.8643V29.8755C15.5904 29.4565 16.0148 29.1167 16.5384 29.1167ZM6.88471 26.9796C7.40826 26.9796 7.83268 27.3193 7.83268 27.7384V35.725C7.83268 36.1441 7.40826 36.4838 6.88471 36.4838C6.36116 36.4838 5.93674 36.1441 5.93674 35.725V27.7384C5.93674 27.3193 6.36116 26.9796 6.88471 26.9796ZM14.0389 5.55285C18.6512 5.55285 22.3901 8.5457 22.3901 12.2376C22.3901 15.9295 18.6512 18.9223 14.0389 18.9223C9.42674 18.9223 5.6878 15.9295 5.6878 12.2376C5.6878 8.5457 9.42674 5.55285 14.0389 5.55285ZM14.0389 7.07046C10.4738 7.07046 7.58374 9.38386 7.58374 12.2376C7.58374 14.8334 9.97508 16.9822 13.0906 17.3493L13.091 12.2376C13.091 12.0366 13.1905 11.8452 13.3647 11.7042L13.4579 11.638L18.5032 8.50532C17.3438 7.61653 15.771 7.07046 14.0389 7.07046ZM19.6665 9.70442L14.9869 12.6093L14.9873 17.3493C18.1028 16.9822 20.4942 14.8334 20.4942 12.2376C20.4942 11.3172 20.1935 10.4529 19.6665 9.70442Z" fill="#B4B4B4"/>
</svg>
