<svg width="42" height="42" viewBox="0 0 42 42" fill="none" xmlns="http://www.w3.org/2000/svg">
<path d="M13.4717 14.7117C20.9119 14.7117 26.9434 20.7092 26.9434 28.1076C26.9434 35.5059 20.9119 41.5034 13.4717 41.5034C6.03148 41.5034 0 35.5059 0 28.1076C0 20.7092 6.03148 14.7117 13.4717 14.7117ZM36.0566 30.8655C36.463 30.8655 36.7979 31.1697 36.8437 31.5616L36.8491 31.6535V35.1995H40.4151C40.8215 35.1995 41.1564 35.5037 41.2022 35.8956L41.2075 35.9875C41.2075 36.4227 40.8527 36.7755 40.4151 36.7755H36.8491V40.3215C36.8491 40.7566 36.4943 41.1094 36.0566 41.1094C35.6502 41.1094 35.3153 40.8052 35.2695 40.4133L35.2641 40.3215V36.7755H31.6981C31.2917 36.7755 30.9568 36.4713 30.911 36.0794L30.9057 35.9875C30.9057 35.5523 31.2604 35.1995 31.6981 35.1995H35.2641V31.6535C35.2641 31.2183 35.6189 30.8655 36.0566 30.8655ZM13.4717 16.2877C6.9068 16.2877 1.58491 21.5796 1.58491 28.1076C1.58491 34.6355 6.9068 39.9275 13.4717 39.9275C20.0366 39.9275 25.3585 34.6355 25.3585 28.1076C25.3585 21.5796 20.0366 16.2877 13.4717 16.2877ZM16.6415 30.1619C18.7722 30.1619 20.5101 31.8342 20.6001 33.9309L20.6038 34.1018V34.8898C20.6038 35.325 20.249 35.6778 19.8113 35.6778C19.4049 35.6778 19.07 35.3736 19.0242 34.9817L19.0189 34.8898V34.1018C19.0189 32.8429 18.0292 31.8138 16.7812 31.7419L16.6415 31.7379H10.3019C9.0358 31.7379 8.00087 32.722 7.92856 33.9629L7.92453 34.1018V34.8898C7.92453 35.325 7.56973 35.6778 7.13207 35.6778C6.72568 35.6778 6.39073 35.3736 6.34495 34.9817L6.33962 34.8898V34.1018C6.33962 31.9831 8.02145 30.255 10.13 30.1655L10.3019 30.1619H16.6415ZM13.4717 19.13C16.0977 19.13 18.2264 21.2467 18.2264 23.8579C18.2264 26.4691 16.0977 28.5859 13.4717 28.5859C10.8457 28.5859 8.71698 26.4691 8.71698 23.8579C8.71698 21.2467 10.8457 19.13 13.4717 19.13ZM28.5283 0.527832C35.9685 0.527832 42 6.52537 42 13.9237C42 20.8145 36.7436 26.5629 29.8988 27.251C29.4634 27.2948 29.0747 26.9793 29.0307 26.5463C28.9866 26.1133 29.3039 25.7268 29.7394 25.6831C35.7767 25.0761 40.4151 20.0036 40.4151 13.9237C40.4151 7.39576 35.0932 2.10382 28.5283 2.10382C22.5588 2.10382 17.5361 6.50523 16.7482 12.3328C16.6898 12.7641 16.2909 13.0668 15.8572 13.0088C15.4234 12.9508 15.1191 12.5541 15.1774 12.1228C16.0707 5.51556 21.7626 0.527832 28.5283 0.527832ZM13.4717 20.706C11.7211 20.706 10.3019 22.1171 10.3019 23.8579C10.3019 25.5987 11.7211 27.0099 13.4717 27.0099C15.2223 27.0099 16.6415 25.5987 16.6415 23.8579C16.6415 22.1171 15.2223 20.706 13.4717 20.706ZM31.6981 15.978C33.8288 15.978 35.5667 17.6504 35.6567 19.7471L35.6604 19.918V20.706C35.6604 21.1411 35.3056 21.4939 34.8679 21.4939C34.4615 21.4939 34.1266 21.1897 34.0808 20.7978L34.0755 20.706V19.918C34.0755 18.659 33.0858 17.6299 31.8378 17.558L31.6981 17.554H24.8945C24.4569 17.554 24.1021 17.2012 24.1021 16.766C24.1021 16.3619 24.408 16.0288 24.8021 15.9833L24.8945 15.978H31.6981ZM28.5283 4.94611C31.1543 4.94611 33.283 7.06288 33.283 9.67406C33.283 12.2852 31.1543 14.402 28.5283 14.402C25.9023 14.402 23.7736 12.2852 23.7736 9.67406C23.7736 7.06288 25.9023 4.94611 28.5283 4.94611ZM28.5283 6.52209C26.7777 6.52209 25.3585 7.93328 25.3585 9.67406C25.3585 11.4148 26.7777 12.826 28.5283 12.826C30.2789 12.826 31.6981 11.4148 31.6981 9.67406C31.6981 7.93328 30.2789 6.52209 28.5283 6.52209Z" fill="#096634"/>
</svg>
