<svg width="33" height="42" viewBox="0 0 33 42" fill="none" xmlns="http://www.w3.org/2000/svg">
<g clip-path="url(#clip0)">
<path d="M18.173 3.11111C19.2651 3.11111 20.3154 3.64888 21.1062 4.61301L25.4808 9.94627C26.3237 10.9739 26.8007 12.3988 26.8007 13.8888V36.5556C26.8007 39.5624 24.8966 42 22.5476 42H7.96558C5.61666 42 3.71248 39.5624 3.71248 36.5556V8.55556C3.71248 5.54867 5.61666 3.11111 7.96558 3.11111H18.173ZM18.173 4.66667H7.96558C6.28778 4.66667 4.92765 6.40778 4.92765 8.55556V36.5556C4.92765 38.7033 6.28778 40.4444 7.96558 40.4444H22.5476C24.2254 40.4444 25.5856 38.7033 25.5856 36.5556V13.8888C25.5856 12.8245 25.2448 11.8067 24.6428 11.0727L20.2682 5.73945C19.7033 5.05079 18.9531 4.66667 18.173 4.66667ZM19.2996 0C20.2975 0 21.2612 0.449058 22.024 1.26371L22.1843 1.44385L27.8677 8.15956C28.6823 9.12208 29.1689 10.4508 29.2296 11.8604L29.236 12.1433L29.2875 33.442C29.2885 33.8716 29.0173 34.2209 28.6818 34.2222C28.3742 34.2234 28.1193 33.9318 28.0781 33.5524L28.0723 33.4468L28.0208 12.1481C28.0184 11.1442 27.7129 10.1835 27.1724 9.4642L27.0435 9.30258L21.3601 2.58688C20.8457 1.97903 20.1847 1.61897 19.4898 1.56318L19.2996 1.55556H11.0035C10.668 1.55556 10.3959 1.20733 10.3959 0.777778C10.3959 0.384019 10.6245 0.058602 10.9211 0.00710019L11.0035 0H19.2996ZM17.6536 22.1158C19.9332 22.1158 21.7811 24.4813 21.7811 27.3994C21.7811 30.3175 19.9332 32.683 17.6536 32.683C15.6568 32.683 13.9911 30.8679 13.6087 28.4562L17.033 28.4561C17.1768 28.4561 17.3179 28.4077 17.4424 28.3157C17.8339 28.0263 17.9681 27.3854 17.742 26.8842L15.8347 22.6552C16.3834 22.3098 17.0008 22.1158 17.6536 22.1158ZM13.6218 18.0295C13.7462 18.1214 13.8496 18.2537 13.9214 18.4131L15.8347 22.6552C14.4672 23.516 13.5261 25.317 13.5261 27.3994C13.5261 27.7613 13.5546 28.1147 13.6087 28.4562H9.39183C8.93969 28.4562 8.57317 27.9869 8.57317 27.4082C8.57317 27.2242 8.61099 27.0435 8.68285 26.8842L12.5035 18.4131C12.7295 17.9118 13.2302 17.7401 13.6218 18.0295ZM18.3621 6.22222C18.6697 6.22222 18.9239 6.51483 18.9641 6.89446L18.9696 7V11.9359C18.9696 12.37 19.2474 12.7419 19.6178 12.7965L19.7122 12.8034H23.7628C24.0984 12.8034 24.3704 13.1516 24.3704 13.5812C24.3704 13.975 24.1418 14.3004 23.8453 14.3519L23.7628 14.359H19.7122C18.6823 14.359 17.8284 13.3707 17.759 12.1028L17.7545 11.9359V7C17.7545 6.57044 18.0265 6.22222 18.3621 6.22222Z" fill="#D1D292"/>
</g>
<defs>
<clipPath id="clip0">
<rect width="33" height="42" fill="white"/>
</clipPath>
</defs>
</svg>
