<svg width="124" height="124" viewBox="0 0 124 124" fill="none" xmlns="http://www.w3.org/2000/svg">
<path d="M66.1707 95.1756H40.9612C37.3713 95.1756 34.4612 92.2536 34.4612 88.6492V32.0878C34.4612 28.4835 37.3713 25.5615 40.9612 25.5615H79.8866C83.4702 25.5615 86.3778 28.4737 86.3866 32.0718L86.4612 62.4769" stroke="#096634" stroke-width="2" stroke-linecap="round"/>
<path d="M49.6279 60.3686V58.1932C49.6279 55.7902 51.568 53.8423 53.9612 53.8423H66.9612C69.3544 53.8423 71.2945 55.7902 71.2945 58.1932V60.3686" stroke="#B80000" stroke-width="2" stroke-linecap="round" stroke-linejoin="round"/>
<path d="M60.4612 47.3162C63.4528 47.3162 65.8779 44.8812 65.8779 41.8776C65.8779 38.8739 63.4528 36.439 60.4612 36.439C57.4697 36.439 55.0446 38.8739 55.0446 41.8776C55.0446 44.8812 57.4697 47.3162 60.4612 47.3162Z" stroke="#B80000" stroke-width="2"/>
<path d="M45.2945 83.2108H58.2945M45.2945 76.6845H60.4612H45.2945ZM45.2945 70.1582H66.9612H45.2945Z" stroke="#096634" stroke-width="2" stroke-linecap="round" stroke-linejoin="round"/>
<path d="M88.142 70.8696C88.692 70.8696 89.1547 71.2834 89.2181 71.832L89.4657 73.9751C90.7456 74.2819 91.9479 74.7891 93.038 75.4619L94.7229 74.1216C95.154 73.7786 95.7727 73.8145 96.1617 74.205L98.3512 76.4034C98.7401 76.7939 98.7759 77.415 98.4344 77.8479L97.1 79.5407C97.7697 80.635 98.2747 81.8418 98.5801 83.1264L100.714 83.3751C101.261 83.4387 101.673 83.9033 101.673 84.4556V87.5647C101.673 88.1169 101.261 88.5815 100.715 88.6451L98.5801 88.8938C98.2746 90.1788 97.7694 91.386 97.0993 92.4805L98.4342 94.1722C98.7758 94.6051 98.7401 95.2263 98.3511 95.6168L96.1616 97.8152C95.7726 98.2057 95.154 98.2416 94.7229 97.8988L93.0369 96.5589C91.952 97.2283 90.756 97.7338 89.4831 98.0409L89.2226 100.194C89.1565 100.74 88.6949 101.15 88.1471 101.15H85.04C84.4923 101.15 84.0307 100.74 83.9646 100.194L83.7032 98.0406C82.4362 97.7348 81.2454 97.2325 80.1646 96.5676L78.4636 97.906C78.0323 98.2452 77.4168 98.2078 77.0294 97.8189L74.8323 95.6129C74.445 95.224 74.4078 94.6061 74.7455 94.1731L76.078 92.4641C75.4159 91.3789 74.9158 90.1833 74.6114 88.9112L72.467 88.6496C71.9232 88.5833 71.5143 88.1198 71.5143 87.5698V84.4501C71.5143 83.9002 71.9231 83.4367 72.4669 83.3704L74.6116 83.1079C74.9161 81.8362 75.4161 80.6409 76.078 79.556L74.7457 77.847C74.4079 77.4141 74.4451 76.796 74.8325 76.4071L77.0295 74.2011C77.4168 73.8122 78.0323 73.7748 78.4635 74.1139L80.1657 75.4519C81.2514 74.784 82.4481 74.2803 83.7216 73.9751L83.9693 71.8321C84.0327 71.2835 84.4954 70.8696 85.0455 70.8696H88.142V70.8696Z" stroke="#D1D292" stroke-width="2"/>
<path d="M86.5937 92.3808C90.098 92.3808 92.9388 89.5285 92.9388 86.01C92.9388 82.4915 90.098 79.6392 86.5937 79.6392C83.0893 79.6392 80.2485 82.4915 80.2485 86.01C80.2485 89.5285 83.0893 92.3808 86.5937 92.3808Z" stroke="#D1D292" stroke-width="2"/>
<path d="M96.4166 1.08789H27.0833C12.7239 1.08789 1.08331 12.7756 1.08331 27.1932V96.8072C1.08331 111.225 12.7239 122.912 27.0833 122.912H96.4166C110.776 122.912 122.417 111.225 122.417 96.8072V27.1932C122.417 12.7756 110.776 1.08789 96.4166 1.08789Z" stroke="#B4B4B4" stroke-width="2"/>
</svg>
