<svg width="124" height="124" viewBox="0 0 124 124" fill="none" xmlns="http://www.w3.org/2000/svg">
<path d="M96.6666 1.08789H27.3333C12.9739 1.08789 1.33331 12.7756 1.33331 27.1932V96.8072C1.33331 111.225 12.9739 122.912 27.3333 122.912H96.6666C111.026 122.912 122.667 111.225 122.667 96.8072V27.1932C122.667 12.7756 111.026 1.08789 96.6666 1.08789Z" stroke="#B4B4B4" stroke-width="2"/>
<path d="M20.2916 105.31H24.8813C27.5906 105.31 30.0157 103.622 30.9672 101.076L39.8061 77.4167C40.6466 75.1669 43.1445 74.0272 45.3853 74.8711C46.2858 75.2103 47.0482 75.8405 47.5527 76.6626L56.2405 90.8206C58.1235 93.8893 62.1277 94.8443 65.184 92.9536C66.1827 92.3358 66.9963 91.4582 67.5385 90.4138L71.9752 81.8673C73.9953 77.9761 78.7747 76.4659 82.6502 78.4941C83.974 79.1869 85.0756 80.2415 85.8278 81.5361L90.224 89.1022C91.7314 91.6967 95.0482 92.5729 97.6322 91.0593C97.688 91.0266 97.7432 90.993 97.7978 90.9583L103.708 87.2054" stroke="#B80000" stroke-width="2" stroke-linecap="round" stroke-linejoin="round"/>
<path d="M22.2412 32.1817C21.8062 33.7067 21.5732 35.3173 21.5732 36.9826C21.5732 46.5943 29.3336 54.3861 38.9066 54.3861C48.4795 54.3861 56.2399 46.5943 56.2399 36.9826C56.2399 27.3709 48.4795 19.5791 38.9066 19.5791C37.103 19.5791 35.3638 19.8557 33.7287 20.3689" stroke="#096634" stroke-width="2" stroke-linecap="round" stroke-linejoin="round"/>
<path d="M31.1398 45.3724V44.8494C31.1398 42.4465 33.0799 40.4985 35.4731 40.4985H42.3401C44.7333 40.4985 46.6734 42.4465 46.6734 44.8494V45.3724" stroke="#096634" stroke-width="2" stroke-linecap="round" stroke-linejoin="round"/>
<path d="M38.9066 36.5994C41.5875 36.5994 43.7608 34.4173 43.7608 31.7255C43.7608 29.0337 41.5875 26.8516 38.9066 26.8516C36.2256 26.8516 34.0523 29.0337 34.0523 31.7255C34.0523 34.4173 36.2256 36.5994 38.9066 36.5994Z" stroke="#096634" stroke-width="2"/>
<path d="M25.1666 28.2807C27.859 28.2807 30.0416 26.0892 30.0416 23.3859C30.0416 20.6827 27.859 18.4912 25.1666 18.4912C22.4742 18.4912 20.2916 20.6827 20.2916 23.3859C20.2916 26.0892 22.4742 28.2807 25.1666 28.2807Z" fill="#096634"/>
<path d="M74.1917 31.3618H76.2388V19.8659H74.1996L71.2083 21.9691V23.9449L74.0568 21.9372H74.1917V31.3618ZM79.3864 23.015L79.3809 23.2597H81.3011V23.2278C81.3011 22.0567 82.1104 21.268 83.3085 21.268C84.4352 21.268 85.2604 22.001 85.2604 23.0127C85.2604 23.7547 84.9363 24.3173 83.6902 25.6223L79.492 29.9358V31.3618H87.4424V29.6171H82.3008V29.4817L84.6971 27.0678C86.641 25.1399 87.2679 24.1201 87.2679 22.8853C87.2679 20.9653 85.6334 19.5791 83.372 19.5791C81.1017 19.5791 79.4912 20.9787 79.3864 23.015ZM91.0368 31.5291C91.7906 31.5291 92.3063 30.9874 92.3063 30.2704C92.3063 29.5454 91.7906 29.0117 91.0368 29.0117C90.2909 29.0117 89.7673 29.5454 89.7673 30.2704C89.7673 30.9874 90.2909 31.5291 91.0368 31.5291ZM98.535 31.6486C96.1625 31.6486 94.5201 30.1987 94.4249 28.1752H96.345C96.472 29.2347 97.3686 29.9358 98.5508 29.9358C99.8918 29.9358 100.804 29.0276 100.804 27.6573C100.804 26.2791 99.8838 25.347 98.5667 25.347C97.6225 25.347 96.8846 25.7692 96.464 26.4783H94.6074L95.2024 19.8659H102.098V21.6026H96.7894L96.5117 24.8292H96.6465C97.1544 24.144 97.9637 23.7536 99.0666 23.7536C101.241 23.7536 102.78 25.355 102.78 27.6095C102.78 30.0075 101.074 31.6486 98.535 31.6486ZM94.0937 48.9978H96.0932C96.2202 50.0255 97.2358 50.6868 98.6878 50.6868C100.037 50.6868 101.013 49.9937 101.013 49.0297C101.013 48.2012 100.386 47.7152 98.9179 47.3726L97.4342 47.0301C95.3553 46.56 94.3794 45.5244 94.3794 43.8115C94.3794 41.7242 96.0774 40.338 98.6402 40.338C101.044 40.338 102.782 41.7242 102.877 43.7H100.917C100.775 42.6882 99.886 42.0509 98.6323 42.0509C97.3152 42.0509 96.4424 42.6882 96.4424 43.6681C96.4424 44.4409 97.0216 44.895 98.4419 45.2216L99.759 45.5244C102.084 46.0502 103.06 47.0221 103.06 48.7748C103.06 51.0134 101.338 52.4076 98.5609 52.4076C95.9345 52.4076 94.1969 51.0851 94.0937 48.9978ZM76.0136 40.6248V52.1208H78.0607V48.3525H80.5443C82.8612 48.3525 84.4798 46.7911 84.4798 44.5126C84.4798 42.1943 82.9167 40.6248 80.6315 40.6248H76.0136ZM78.0607 42.3456H80.092C81.5678 42.3456 82.4009 43.1025 82.4009 44.5126C82.4009 45.8829 81.544 46.6477 80.0841 46.6477H78.0607V42.3456ZM88.044 53.1832H86.2587L89.6151 39.2813H91.4321L88.044 53.1832Z" fill="#D1D292"/>
</svg>
