<svg width="124" height="124" viewBox="0 0 124 124" fill="none" xmlns="http://www.w3.org/2000/svg">
<path d="M96.9166 1.08789H27.5832C13.2238 1.08789 1.58325 12.7756 1.58325 27.1932V96.8072C1.58325 111.225 13.2238 122.912 27.5832 122.912H96.9166C111.276 122.912 122.917 111.225 122.917 96.8072V27.1932C122.917 12.7756 111.276 1.08789 96.9166 1.08789Z" stroke="#B4B4B4" stroke-width="2"/>
<path d="M62.4128 22.541L68.2785 31.5742C69.4784 33.4219 71.5266 34.5361 73.7235 34.5361H94.7499C100.135 34.5361 104.5 38.919 104.5 44.3256V94.6317C104.5 100.038 100.135 104.421 94.7499 104.421H29.7499C24.3651 104.421 19.9999 100.038 19.9999 94.6317V29.3686C19.9999 23.962 24.3651 19.5791 29.7499 19.5791H56.9679C59.1647 19.5791 61.213 20.6933 62.4128 22.541Z" stroke="#D1D292" stroke-width="2"/>
<path d="M62.25 91.3684C75.4128 91.3684 86.0833 80.6547 86.0833 67.4386C86.0833 54.2225 75.4128 43.5088 62.25 43.5088C49.0872 43.5088 38.4166 54.2225 38.4166 67.4386C38.4166 80.6547 49.0872 91.3684 62.25 91.3684Z" fill="#096634" stroke="white"/>
<path d="M62.25 62.3535C65.0471 62.3535 67.3145 64.6302 67.3145 67.4386C67.3145 70.247 65.0471 72.5237 62.25 72.5237C59.4529 72.5237 57.1854 70.247 57.1854 67.4386C57.1854 64.6302 59.4529 62.3535 62.25 62.3535ZM51.5596 62.8434C51.7749 62.9682 51.9536 63.1477 52.0779 63.3638L55.9466 70.0917C56.3377 70.7718 56.1056 71.6414 55.4283 72.0341C55.213 72.1589 54.9688 72.2246 54.7202 72.2246H46.9828C46.2007 72.2246 45.5667 71.588 45.5667 70.8027C45.5667 70.5531 45.6321 70.3079 45.7564 70.0917L49.6251 63.3638C50.0161 62.6837 50.8822 62.4507 51.5596 62.8434ZM77.1458 62.6526C78.133 62.6526 78.9333 63.4562 78.9333 64.4474V70.4298C78.9333 71.421 78.133 72.2246 77.1458 72.2246H71.1875C70.2003 72.2246 69.4 71.421 69.4 70.4298V64.4474C69.4 63.4562 70.2003 62.6526 71.1875 62.6526H77.1458Z" fill="#096634"/>
</svg>
